<svg height="477pt" viewBox="0 -25 477.99998 477" width="477pt" xmlns="http://www.w3.org/2000/svg"><g fill="#b56c55"><path d="m234 108.898438c-4.96875 0-9-4.027344-9-9v-16.796876c0-4.972656 4.03125-9 9-9 4.972656 0 9 4.027344 9 9v16.796876c0 4.972656-4.027344 9-9 9zm0 0"/><path d="m109 240.5h-72.054688l-19.015624-152.117188c-.613282-4.929687-5.113282-8.429687-10.046876-7.8125-4.929687.613282-8.429687 5.113282-7.8124995 10.046876l19.9999995 160c.5625 4.503906 4.390626 7.882812 8.929688 7.882812h16.042969l-18.921875 113.519531c-.816406 4.90625 2.496094 9.542969 7.398437 10.359375 4.90625.816406 9.542969-2.496094 10.359375-7.398437l19.414063-116.480469h45.707031c4.972656 0 9-4.03125 9-9s-4.027344-9-9-9zm0 0"/><path d="m470.117188 80.570312c-4.933594-.617187-9.429688 2.882813-10.046876 7.8125l-19.015624 152.117188h-72.054688c-4.96875 0-9 4.03125-9 9s4.03125 9 9 9h45.710938l19.414062 116.480469c.863281 4.855469 5.472656 8.109375 10.339844 7.300781 4.863281-.8125 8.167968-5.386719 7.414062-10.261719l-18.921875-113.519531h16.042969c4.539062 0 8.367188-3.378906 8.929688-7.882812l20-160c.617187-4.933594-2.882813-9.429688-7.8125-10.046876zm0 0"/></g><path d="m284.25 413.5-.160156.078125c-35.992188 18.742187-78.871094 18.710937-114.839844-.078125-24.859375 17.921875-58.382812 17.976562-83.300781.140625l-.199219-.140625 39.410156-220.699219c.339844-1.910156 2-3.300781 3.9375-3.300781h220.300782c1.941406 0 3.601562 1.390625 3.941406 3.300781l38.914062 220.699219-3.253906 1.730469c-32.867188 17.578125-72.480469 16.921875-104.75-1.730469zm0 0" fill="#f8ec7d"/><path d="m169.25 422.5c-4.96875 0-9-4.03125-9-9v-86c0-4.96875 4.03125-9 9-9 4.972656 0 9 4.03125 9 9v86c0 4.96875-4.027344 9-9 9zm0 0" fill="#e2d574"/><path d="m284.25 422.5c-4.96875 0-9-4.03125-9-9v-121c0-4.96875 4.03125-9 9-9 4.972656 0 9 4.03125 9 9v121c0 4.96875-4.027344 9-9 9zm0 0" fill="#e2d574"/><path d="m282.792969 111.105469c-19.734375-19.730469-49.414063-25.632813-75.195313-14.953125-25.785156 10.679687-42.59375 35.839844-42.597656 63.746094 0 4.972656 4.03125 9 9 9h120c4.972656 0 9-4.027344 9-9 .046875-18.308594-7.226562-35.875-20.207031-48.792969zm0 0" fill="#e48e66"/><path d="m264 71.5c-4.96875 0-9-4.03125-9-9v-23c0-4.96875 4.03125-9 9-9 4.972656 0 9 4.03125 9 9v23c0 4.96875-4.027344 9-9 9zm0 0" fill="#e2d574"/><path d="m223 54.5c-4.96875 0-9-4.03125-9-9v-36c0-4.96875 4.03125-9 9-9 4.972656 0 9 4.03125 9 9v36c0 4.96875-4.027344 9-9 9zm0 0" fill="#e2d574"/><path d="m185 78.5c-4.96875 0-9-4.03125-9-9v-19c0-4.96875 4.03125-9 9-9 4.972656 0 9 4.03125 9 9v19c0 4.96875-4.027344 9-9 9zm0 0" fill="#e2d574"/><path d="m239 91.097656c-1.65625-.117187-3.320312-.199218-5-.199218-38.089844.042968-68.957031 30.910156-69 69 0 4.96875 4.03125 9 9 9h65zm0 0" fill="#d18162"/></svg>